<svg xmlns="http://www.w3.org/2000/svg" width="20" height="22" fill="none">
    <path stroke-linecap="round" stroke-linejoin="round" stroke-width="2"
          d="M14 5v-.8c0-1.1201 0-1.68016-.218-2.10798-.1917-.37633-.4977-.68229-.874-.87403C12.4802 1 11.9201 1 10.8 1H9.2c-1.12011 0-1.68016 0-2.10798.21799-.37633.19174-.68229.4977-.87403.87403C6 2.51984 6 3.0799 6 4.2V5m2 5.5v5m4-5v5M1 5h18m-2 0v11.2c0 1.6802 0 2.5202-.327 3.162-.2876.5645-.7465 1.0234-1.311 1.311C14.7202 21 13.8802 21 12.2 21H7.8c-1.68016 0-2.52024 0-3.16197-.327-.56449-.2876-1.02343-.7465-1.31105-1.311C3 18.7202 3 17.8802 3 16.2V5"/>
</svg>