<svg xmlns="http://www.w3.org/2000/svg" width="24" height="24" fill="none">
    <g clip-path="url(#a)">
        <path fill="#F0F0F0"
              d="M12 24c6.6274 0 12-5.3726 12-12 0-6.62742-5.3726-12-12-12C5.37258 0 0 5.37258 0 12c0 6.6274 5.37258 12 12 12Z"/>
        <path fill="#0052B4"
              d="M16.5173 9.39207H13.505l-1.5061-2.60868-1.5061 2.60868H7.48047l1.50628 2.60873-1.50628 2.6086h3.01233l1.5061 2.6087 1.5061-2.6087h3.0123l-1.5063-2.6086 1.5063-2.60873Zm-2.668 2.60873-.9251 1.6025h-1.8504l-.9253-1.6025.9252-1.6026h1.8504l.9252 1.6026Zm-1.8504-3.20521.3443.59644h-.6886l.3443-.59644ZM9.22324 10.3982h.68868l-.34434.5964-.34434-.5964Zm0 3.2051.34439-.5964.34434.5964h-.68873Zm2.77566 1.6026-.3443-.5965h.6886l-.3443.5965Zm2.7757-1.6026h-.6887l.3444-.5964.3443.5964Zm-.6887-3.2051h.6887l-.3444.5964-.3443-.5964ZM19.4693 2.60907H4.5296c-1.09514.87225-2.03433 1.93172-2.76886 3.13045H22.2382c-.7346-1.19868-1.6738-2.2582-2.7689-3.13045ZM4.5296 21.3914h14.9397c1.0951-.8723 2.0343-1.9317 2.7688-3.1305H1.76074c.73458 1.1987 1.67377 2.2582 2.76886 3.1305Z"/>
    </g>
    <defs>
        <clipPath id="a">
            <path fill="#fff" d="M0 0h24v24H0z"/>
        </clipPath>
    </defs>
</svg>